<?xml version="1.0" encoding="UTF-8" standalone="no"?>
<svg xmlns="http://www.w3.org/2000/svg" xmlns:xlink="http://www.w3.org/1999/xlink" width="700" height="770" viewBox="0 0 700 770">
<style>
text {
  font-family: Arial, sans-serif;
}
</style>
<rect x="150" y="15" width="400" height="60" rx="5" ry="5" fill="#a8d8e0" stroke="black" />
<text x="350" y="50" text-anchor="middle" font-weight="bold">Distributed Nodes</text>

<line x1="350" y1="75" x2="350" y2="100" stroke="black" stroke-width="2" />
<text x="350" y="95" text-anchor="middle" font-size="14">Collect System Metrics</text>

<rect x="200" y="110" width="300" height="50" rx="20" ry="20" fill="#a0e5a0" stroke="black" />
<text x="350" y="135" text-anchor="middle" font-weight="bold">Monitoring Agent</text>
<text x="350" y="155" text-anchor="middle" font-size="14">(Telegraf/collectd)</text>

<line x1="350" y1="160" x2="350" y2="185" stroke="black" stroke-width="2" />
<text x="350" y="180" text-anchor="middle" font-size="14">Send Metrics Data</text>

<rect x="180" y="195" width="340" height="50" rx="20" ry="20" fill="#ffff00" stroke="black" />
<text x="350" y="220" text-anchor="middle" font-weight="bold">Fault Prediction Module</text>
<text x="350" y="240" text-anchor="middle" font-size="14">(TensorFlow/PyTorch)</text>

<line x1="350" y1="245" x2="350" y2="270" stroke="black" stroke-width="2" />
<text x="350" y="265" text-anchor="middle" font-size="14">Trigger Recovery if Fault Detected</text>

<rect x="180" y="280" width="340" height="50" rx="20" ry="20" fill="#ff9933" stroke="black" />
<text x="350" y="305" text-anchor="middle" font-weight="bold">Recovery Module</text>
<text x="350" y="325" text-anchor="middle" font-size="14">(CRIU, cgroups, Node Restart)</text>

<line x1="350" y1="330" x2="350" y2="355" stroke="black" stroke-width="2" />
<text x="350" y="350" text-anchor="middle" font-size="14">Notify Other Nodes</text>

<rect x="180" y="365" width="340" height="50" rx="20" ry="20" fill="#ffb6c1" stroke="black" />
<text x="350" y="390" text-anchor="middle" font-weight="bold">Inter-Node Communication</text>
<text x="350" y="410" text-anchor="middle" font-size="14">(gRPC/ZeroMQ)</text>

<line x1="250" y1="415" x2="250" y2="445" stroke="black" stroke-width="2" />
<text x="250" y="435" text-anchor="middle" font-size="14">Consensus on Fault Handling</text>

<line x1="450" y1="415" x2="450" y2="485" stroke="black" stroke-width="2" />
<text x="450" y="450" text-anchor="middle" font-size="14">Update Dashboard</text>

<rect x="130" y="455" width="240" height="50" rx="20" ry="20" fill="#c0c0c0" stroke="black" />
<text x="250" y="480" text-anchor="middle" font-weight="bold">Consensus Mechanism</text>
<text x="250" y="500" text-anchor="middle" font-size="14">(Raft/Paxos)</text>

<line x1="250" y1="505" x2="350" y2="535" stroke="black" stroke-width="2" />
<text x="300" y="530" text-anchor="middle" font-size="14">Update Fault Status</text>

<rect x="180" y="545" width="340" height="50" rx="20" ry="20" fill="#87ceeb" stroke="black" />
<text x="350" y="570" text-anchor="middle" font-weight="bold">Real-Time Dashboard</text>
<text x="350" y="590" text-anchor="middle" font-size="14">(Grafana, Flask, InfluxDB)</text>
</svg> 